<?xml version="1.0" encoding="UTF-8"?>
<!DOCTYPE svg PUBLIC "-//W3C//DTD SVG 1.1//EN" "http://www.w3.org/Graphics/SVG/1.1/DTD/svg11.dtd">
<svg xmlns="http://www.w3.org/2000/svg" version="1.1" width="225px" height="225px" style="shape-rendering:geometricPrecision; text-rendering:geometricPrecision; image-rendering:optimizeQuality; fill-rule:evenodd; clip-rule:evenodd" xmlns:xlink="http://www.w3.org/1999/xlink">
<!-- <g><path style="opacity:1" fill="#fefefe" d="M -0.5,-0.5 C 74.5,-0.5 149.5,-0.5 224.5,-0.5C 224.5,74.5 224.5,149.5 224.5,224.5C 149.5,224.5 74.5,224.5 -0.5,224.5C -0.5,149.5 -0.5,74.5 -0.5,-0.5 Z"/></g> -->
<g><path style="opacity:1" fill="#1aa9e0" d="M 153.5,36.5 C 178.494,35.3245 188.661,46.9911 184,71.5C 182.533,74.2664 180.7,76.7664 178.5,79C 147.15,97.3731 126.65,124.206 117,159.5C 114.902,168.754 113.235,178.088 112,187.5C 97.4968,141.526 103.163,98.1923 129,57.5C 135.566,48.4195 143.732,41.4195 153.5,36.5 Z"/></g>
<g><path style="opacity:1" fill="#f08e1c" d="M 45.5,46.5 C 51.4728,46.5257 56.8061,48.359 61.5,52C 82.873,74.4544 92.5396,101.121 90.5,132C 89.6683,132.688 89.0016,132.521 88.5,131.5C 80.0028,106.502 63.6694,88.6689 39.5,78C 29.2924,69.0103 28.9591,59.677 38.5,50C 40.7133,48.3838 43.0466,47.2172 45.5,46.5 Z"/></g>
<g><path style="opacity:1" fill="#62ac44" d="M 32.5,115.5 C 44.0875,116.46 54.0875,120.96 62.5,129C 72.9729,138.134 81.1396,148.967 87,161.5C 87.6667,162.833 87.6667,164.167 87,165.5C 69.5849,153.028 50.0849,146.528 28.5,146C 20.4466,142.394 17.28,136.228 19,127.5C 21.4043,121.061 25.9043,117.061 32.5,115.5 Z"/></g>
<g><path style="opacity:1" fill="#1874bc" d="M 185.5,115.5 C 196.994,114.72 203.661,119.887 205.5,131C 205.234,139.603 200.9,144.936 192.5,147C 171.817,146.783 153.317,152.95 137,165.5C 137.473,160.524 139.14,155.858 142,151.5C 152.539,134.439 167.039,122.439 185.5,115.5 Z"/></g>
</svg>
